<?xml version="1.0" encoding="utf-8"?>
<!-- Generator: Adobe Illustrator 27.5.0, SVG Export Plug-In . SVG Version: 6.00 Build 0)  -->
<svg version="1.1" id="Layer_1" xmlns="http://www.w3.org/2000/svg" xmlns:xlink="http://www.w3.org/1999/xlink" x="0px" y="0px"
	 viewBox="0 0 118.7 118.7" style="enable-background:new 0 0 118.7 118.7;" xml:space="preserve">
<style type="text/css">
	.st0{filter:url(#Union_1);}
	.st1{fill:#FFFFFF;}
	.st2{fill:#01502A;}
	.st3{filter:url(#Subtraction_28);}
	.st4{fill-rule:evenodd;clip-rule:evenodd;fill:#004F9F;}
	.st5{fill-rule:evenodd;clip-rule:evenodd;fill:#E30613;}
	.st6{fill-rule:evenodd;clip-rule:evenodd;fill:#00964F;}
</style>
<filter  filterUnits="userSpaceOnUse" height="118.72" id="Union_1" width="118.72" x="0" y="0">
	<feOffset  dy="3" input="SourceAlpha"></feOffset>
	<feGaussianBlur  result="blur" stdDeviation="3"></feGaussianBlur>
	<feFlood  flood-opacity="0.349"></feFlood>
	<feComposite  in2="blur" operator="in"></feComposite>
	<feComposite  in="SourceGraphic" operator="over"></feComposite>
</filter>
<filter  id="Subtraction_28">
	<feOffset  input="SourceAlpha"></feOffset>
	<feGaussianBlur  result="blur-2" stdDeviation="1.5"></feGaussianBlur>
	<feFlood  flood-opacity="0.302" result="color"></feFlood>
	<feComposite  in="SourceGraphic" in2="blur-2" operator="out"></feComposite>
	<feComposite  in="color" operator="in"></feComposite>
	<feComposite  in2="SourceGraphic" operator="in"></feComposite>
</filter>
<g id="Group_6514" transform="translate(-288.889 -183.686)">
	<g id="Group_6505" transform="translate(297.889 189.686)">
		<g id="Group_6503" transform="translate(0 0)">
			<g id="Group_6483" transform="translate(0 0)">
				<g transform="matrix(1, 0, 0, 1, -9, -6)" class="st0">
					<path id="Union_1-2_00000168839082205655000490000007639844551053292940_" class="st1" d="M70.2,90.2l0.9,0
						c-0.6,0-1.3,0.1-1.9,0.3c-0.2,0.1-0.4,0.1-0.7,0.2c-2.1,0.7-4,2-5.4,3.7c-3.4,4.2-3.3,7.1-3.3,7.1c-1.1-2.4-2.4-4.8-4.1-6.9
						c-1.2-1.5-2.8-2.7-4.5-3.6c-6.5-1.5-12.4-4.7-17.1-9.4C20,67.8,19.8,45.2,33.7,31.1s36.5-14.3,50.6-0.4s14.3,36.5,0.4,50.6
						c-0.1,0.1-0.1,0.1-0.2,0.2C80.4,85.5,75.5,88.5,70.2,90.2z"/>
				</g>
				<g>
					<path id="Subtraction_28-2" class="st2" d="M50.6,81.2c-17,0-30.8-13.8-30.8-30.8c0-12.4,7.4-23.5,18.8-28.4
						c15.7-6.6,33.8,0.8,40.3,16.5c6.6,15.6-0.7,33.6-16.4,40.3C58.8,80.4,54.7,81.2,50.6,81.2z M50.6,23
						c-15.1,0-27.3,12.2-27.3,27.3s12.2,27.3,27.3,27.3c15.1,0,27.3-12.2,27.3-27.3C77.9,35.3,65.7,23.1,50.6,23z"/>
					<g transform="matrix(1, 0, 0, 1, -9, -6)" class="st3">
						<path id="Subtraction_28-3_00000117655940951437302560000001486441521496194230_" class="st1" d="M59.6,87.2
							c-17,0-30.8-13.8-30.8-30.8c0-12.4,7.4-23.5,18.8-28.4c15.7-6.6,33.8,0.8,40.3,16.5c6.6,15.6-0.7,33.6-16.4,40.3
							C67.8,86.4,63.7,87.2,59.6,87.2z M59.6,29c-15.1,0-27.3,12.2-27.3,27.3s12.2,27.3,27.3,27.3c15.1,0,27.3-12.2,27.3-27.3
							C86.9,41.3,74.7,29.1,59.6,29z"/>
					</g>
				</g>
			</g>
		</g>
	</g>
	<g id="Group_6511" transform="translate(24.326 211.354)">
		<path id="Path_15842" class="st4" d="M335.6,17.2c-0.1-0.2-0.2-0.4-0.4-0.4l-0.5,0c-0.9-0.1-1.9-0.1-2.6-0.2
			c-1.5-0.1-2.9,0-4.4,0.2c-1.9,0.2-3.7,0.3-5.6,0.3c-0.7,0-1.4-0.1-2.1-0.2c-0.4-0.1-2.7-0.1-3.5-0.2c-0.4,0-1.5-0.1-3-0.2l-1,0
			c-0.4,0-0.8,0.3-0.8,0.8c0,0,0,0.1,0,0.1c0,0.5,0,1.9,0,3.2l0,0.2c0,1.3,0,2.7,0,3.2c0,0.4,0.2,0.8,0.6,1c0.1,0,0.2,0,0.3,0.1
			c0.2,0.1,0.9,0.4,1.1,0.5s0.6-0.3,0.8-0.4c1.5-1.2,3.2-2.3,4.9-3.3c2.2-1.1,4.5-2.1,6.9-3c0.7-0.1,1.4,0,2.1,0.3
			c1.2,0.4,2.4,0.7,3.7,0.9c0.3,0.1,1.3,0.4,1.7,0.5c0.3,0,0.7,0,1,0l0.3,0c0.2-0.1,0.3-0.2,0.3-0.4l0-0.5c0-0.5,0.1-1.5,0.1-2
			L335.6,17.2"/>
		<path id="Path_15843" class="st5" d="M309.8,29.7c-0.4,0.3-0.4,0.8-0.1,1.1c0.3,0.2,0.7,0.3,1,0.1l0.5-0.4c0.6-0.5,1.3-1,1.9-1.4
			c1.3-0.8,3.3-1.7,5.2-2.8s4-2.1,4.8-2.6l0.8-0.5c0.3-0.2,0.7-0.3,1-0.2l0.8,0.3c0.5,0.3,1.1,0.4,1.7,0.5c0.4,0,0.9,0,1.3,0
			c0.8,0.4,1.7,0.9,2.5,1.4c0.9,0.6,2.3,1.5,3.5,2s1.1,0.4,1.4,0.4l0.3,0.1c0.7,0.2,0.9,0.1,1.1-0.3l0.3-0.5
			c0.1-0.2,0.3-0.4,0.3-0.5c0.2-0.4,0.4-0.7,0.3-1c-0.5-0.5-1.1-0.9-1.8-1.2c-1.1-0.6-2.2-1-3.4-1.3c-1.8-0.4-4.3-1-5.1-1.1
			c-0.7-0.1-1.5-0.3-2.2-0.6c-0.4-0.2-0.9-0.3-1.4-0.2c-0.6,0.1-1,0.2-1.4,0.3c-0.5,0.2-1,0.4-1.5,0.6c-0.4,0.2-2.7,1.3-3.1,1.6
			c-0.3,0.2-1.2,0.6-1.8,1s-2.3,1.4-3,1.9s-1.4,1-2,1.5s-1.3,1.1-1.7,1.4L309.8,29.7z"/>
		<path id="Path_15844" class="st6" d="M315.7,28.7c-0.1-0.2-0.4-0.2-0.6,0l-0.5,0.3c-0.2,0.1-0.4,0.3-0.6,0.3
			c-0.7,0.4-1.3,1-1.7,1.6c-0.3,0.8-0.4,1.6-0.4,2.5c0,1-0.1,1.8,0,3.4c0,0.7,0,1.4,0,2.1l0,0.9c0,0.4,0.2,0.8,0.5,0.8h0.3
			c0.3,0,1.2,0,1.6-0.1c0.5,0,1.1,0.1,1.6,0.2c0.7,0.1,1.4,0.2,2.1,0.1c0.7,0,3.5-0.1,5.1,0s3.4,0,4.3-0.1c0.9-0.1,1.8-0.2,2.6-0.4
			c0.6-0.1,1.5-0.3,1.9-0.3l2.2,0l0.9,0c0.4,0,0.8-0.4,0.8-0.9c0,0,0,0,0,0v-0.7c0-0.2,0-0.3,0-0.4c0-0.4,0.1-1.2,0.1-1.9l0-0.5
			c0-0.2-0.3-0.5-0.7-0.6c-0.3,0-0.6-0.1-0.9-0.1c-1.2-0.1-2.5-0.2-3-0.2c-0.8,0-2.3,0-3,0.1s-1.2-0.3-3-0.3
			c-1.5-0.1-2.9-0.1-4.4-0.1c-1.7,0.1-3.1,0.2-3.6,0.2s-1.3-0.6-1.3-1.7s-0.1-3.3-0.1-3.8L315.7,28.7z"/>
	</g>
</g>
</svg>
